PathFileType	4	(X/Y/Z)	3_coords_data.trc
DataRate	CameraRate	NumFrames	NumMarkers	Units	OrigDataRate	OrigDataStartFrame	OrigNumFrames
30.0	30.0	7	21	m	30.0	10	49
Frame#	Time	THUMB_TIP	THUMB_IP	THUMB_MCP	THUMB_CMC	INDEX_TIP	INDEX_DIP	INDEX_PIP	INDEX_MCP	MIDDLE_TIP	MIDDLE_DIP	MIDDLE_PIP	MIDDLE_MCP	RING_TIP	RING_DIP	RING_PIP	RING_MCP	PINKY_TIP	PINKY_DIP	PINKY_PIP	PINKY_MCP	WRIST
X1	Y1	Z1	X2	Y2	Z2	X3	Y3	Z3	X4	Y4	Z4	X5	Y5	Z5	X6	Y6	Z6	X7	Y7	Z7	X8	Y8	Z8	X9	Y9	Z9	X10	Y10	Z10	X11	Y11	Z11	X12	Y12	Z12	X13	Y13	Z13	X14	Y14	Z14	X15	Y15	Z15	X16	Y16	Z16	X17	Y17	Z17	X18	Y18	Z18	X19	Y19	Z19	X20	Y20	Z20	X21	Y21	Z21
8	0.2999999999999987	0.4926296329346097	-0.012145192999766907	-0.17114187763623712	0.48916757886120854	-0.016981078047594522	-0.14894664397229374	0.4759609178963278	-0.023943724869557093	-0.12163500441346631	0.47344884564697787	-0.029797334360990968	-0.07748395970401639	0.5688083588001556	0.03146866989755437	-0.17178373013895498	0.5562732469359646	0.02412358058357067	-0.16097074565169062	0.5388380802861168	0.014718235314374661	-0.14549288154648377	0.5105162700552298	-0.0013749738820552082	-0.11806078762338756	0.5879289361434151	0.044624290429579716	-0.15031135026786357	0.574788314809569	0.036723310982366586	-0.14067295855891188	0.5532722536283564	0.02489783079385055	-0.12496860631001827	0.520696391461795	0.006072699017123373	-0.10087347114347389	0.6026172482690386	0.03837557331175101	-0.10760073691891198	0.5864901906621047	0.03283619003345195	-0.10174981854324311	0.5639879866620922	0.025341920895891712	-0.09415595758615225	0.5285378214768951	0.009085261813422951	-0.08349164055135633	0.6018237201281483	0.02171665398333622	-0.06565034549030768	0.5850219305186853	0.018712791010814578	-0.06435548134235386	0.5644228788167662	0.014740979622199557	-0.06350943035397644	0.5307464396591992	0.0018502268540552258	-0.06429006454312541	0.4622830810018609	-0.023011742144276925	-0.051989820119430985
9	0.33333333333333187	0.4926790965689053	-0.011912365405747694	-0.17110639798033866	0.4891701320950227	-0.016786580782544136	-0.14892692114291906	0.4759346898091168	-0.023827546837831615	-0.12164931376058546	0.4734301401415385	-0.02974414177340856	-0.07750623802575546	0.5688194967128631	0.03166179539383163	-0.17167493235803455	0.5562324261840955	0.024367716801115713	-0.1608878070233074	0.5387540285042782	0.014988256378975717	-0.145443028949937	0.5103913097107436	-0.0011425892006023952	-0.1180753820374475	0.5879358919600749	0.0447305589353606	-0.15024364034069326	0.5747427048121064	0.036897963501575703	-0.14062125697432676	0.5531778955023151	0.025129719870695788	-0.1249407916981749	0.5205820999170622	0.0063113825259658585	-0.10086731644543362	0.602559702327767	0.038372245032787355	-0.10768733897237076	0.586407081988766	0.032946414346951336	-0.10180064061482463	0.563875786792436	0.025577530464077514	-0.09417042003501458	0.5284368470700376	0.009333057740194883	-0.08345036913610326	0.6017319884432151	0.02196676457337332	-0.06583767602709512	0.5849330737444581	0.018973170758946112	-0.06448310560880477	0.5643378789187681	0.014995292954212203	-0.06357400865991669	0.5306814367695007	0.0020466885073026075	-0.06425297532367469	0.4622830810018609	-0.023011742144276925	-0.05198982011943093
10	0.3666666666666651	0.49273470090803806	-0.011728442284431262	-0.1710753296149139	0.48918231765890285	-0.01663460257499383	-0.14890981215074056	0.47591971261470545	-0.023737750934556545	-0.1216615353093754	0.47340792699127276	-0.02970633948311374	-0.0775258707769369	0.5688300091561356	0.03181663240687871	-0.1715770338660113	0.5561994267553939	0.02455871589954184	-0.16081640952582538	0.5386757620922173	0.015202246812337172	-0.14540902506275954	0.5102824613356163	-0.0009684827524645279	-0.11809668222133984	0.5879483394028931	0.04480803887334184	-0.15018103449441578	0.5747096582530761	0.03703353300794998	-0.1405740380875014	0.5531020150609122	0.025316024678794125	-0.124914558395114	0.5204909912120272	0.006486182754007697	-0.10087072139651854	0.6025198112510183	0.038343319453300384	-0.10775624093950031	0.586343460274599	0.03301360088652605	-0.10184694579653425	0.5637833906811026	0.025758974014968072	-0.09419229832646314	0.5283525038562981	0.00952527295227834	-0.08342939710908082	0.6016636000239108	0.022146983653876573	-0.06599493283788638	0.5848672331356457	0.019162140954042783	-0.06459037831347614	0.5642738535712419	0.015185619456891342	-0.06363538412548936	0.5306309189206848	0.0021976090865237774	-0.0642252872680239	0.4622830810018609	-0.023011742144276925	-0.05198982011943104
11	0.39999999999999825	0.49278022428848	-0.011570272691472483	-0.1710409237038073	0.4891863359632359	-0.01651535173591634	-0.14889075079364966	0.47589707516426694	-0.023662092495573273	-0.12166687076285243	0.473396138956797	-0.02968152160323767	-0.07753749515766206	0.5688489394493318	0.03193781672019613	-0.171492803060609	0.5561905786799789	0.02470326508151277	-0.16074909954552014	0.5386278218438205	0.015368690921066408	-0.14537297745452799	0.5102083711910922	-0.0008287537763351782	-0.1181036961315492	0.5879817170785022	0.044850792850551935	-0.150113882728319	0.5747047785486179	0.03712575527436812	-0.14051978570357393	0.55305834132906	0.02545333149294604	-0.1248802259665917	0.5204256451034397	0.0066255820296931	-0.10086417074939652	0.6025026228787332	0.03829758640421099	-0.10779966084368087	0.5863066983205307	0.03304877308073295	-0.10187159316523009	0.5637220122138457	0.025890689254454813	-0.09419866879453004	0.5282946801244323	0.009678160084499732	-0.083392241404325	0.6016177868593116	0.0222675918186499	-0.06609282955070389	0.5848224083285045	0.019293009360594415	-0.06465508158700117	0.5642302921309714	0.0153179893970663	-0.06366716165256747	0.5305962849366246	0.002304346190094231	-0.06419829396400795	0.4622830810018609	-0.023011742144276925	-0.05198982011943093
12	0.43333333333333146	0.49283356651476007	-0.011461555691165137	-0.17101821825336788	0.4892029044231253	-0.016443554002211647	-0.1488823201327789	0.475893087132102	-0.023611712747978353	-0.1216741179893982	0.4733828371787888	-0.02965916335497687	-0.07754910256358999	0.5688665901955962	0.032036430676339656	-0.17142583398397043	0.5561915793705151	0.024816239571224585	-0.16069210485613716	0.5386022998295255	0.015497499944286841	-0.14533670938762966	0.5101606704811721	-0.0007168387875330362	-0.11810061140167194	0.588031432214347	0.04486549258926553	-0.15004358860985884	0.574724892131298	0.037176937033915114	-0.14046120349494623	0.5530435569835849	0.025543361205637494	-0.12484105081770702	0.5203870825437746	0.006726883842561149	-0.10084849410094898	0.6025051416341596	0.03824272854918764	-0.10780622635030529	0.5862927546139626	0.033060234266403477	-0.10186482414911874	0.5636862621748202	0.025983707952829005	-0.09418047291220305	0.528250351491042	0.009801508973087847	-0.08335672567793323	0.6015902080600372	0.022343896609441916	-0.06612982453790739	0.5847952415837103	0.01937867590702924	-0.06466812441645964	0.564202195802328	0.01541295703765444	-0.06366236187242913	0.5305728116540448	0.0023860442096175216	-0.06415987064414652	0.4622830810018609	-0.023011742144276925	-0.05198982011943104
13	0.4666666666666647	0.4929001346748527	-0.011366844589714487	-0.17098455684038383	0.4892316462001003	-0.016382958197247444	-0.14886260402000806	0.47590260792178307	-0.02357014493420495	-0.12166883478175677	0.473397257533796	-0.029643011512155093	-0.07754703165722632	0.5689024333694441	0.032115352583783285	-0.17135602166780856	0.5562198729551325	0.02489374656829557	-0.16063216658232687	0.5386144593121578	0.015583097471356444	-0.1452903590990665	0.5101520740929216	-0.0006388490670108382	-0.11808048640296298	0.5881068012780115	0.044859055292980066	-0.14995549930121366	0.5747729134794042	0.03720122817129301	-0.140386532797536	0.5530660312237196	0.02559542249697444	-0.12478121039177326	0.5203854126230117	0.0067949704434865366	-0.10080897454570387	0.6025351315363429	0.03818115504561759	-0.10776606795884436	0.5863108264718739	0.03304213052307381	-0.1018194426863267	0.5636860825561529	0.026030722972374742	-0.09412911721167688	0.5282337833398344	0.009886122865034763	-0.08330288972234773	0.6015809888638735	0.022379928576260144	-0.06610756926748634	0.5847842011129664	0.019429391945154806	-0.06463710850994014	0.5641910097509226	0.0154656797707029	-0.0636264283803491	0.5305659796444201	0.0024270962304584476	-0.06411237138201925	0.4622830810018609	-0.023011742144276925	-0.051989820119430985
14	0.4999999999999978	0.4929827425449608	-0.011298839458031562	-0.1709510073498885	0.48928445708681356	-0.01634647991012861	-0.14884119028740672	0.4759256390437583	-0.0235455851741303	-0.12166519235006573	0.47340636277043147	-0.029631687756356162	-0.0775460060201108	0.5689490343938645	0.03217860042193965	-0.17128718464054316	0.5562631777773233	0.02495086561603932	-0.16057136029147268	0.5386483208906893	0.015641220916234877	-0.14523978615745736	0.5101724471621778	-0.0005884517279114432	-0.11804863989140724	0.588191505357097	0.044842662557656565	-0.1498602287165286	0.574835373040939	0.03721022439531574	-0.1403020062221877	0.5531025443152786	0.02562868849940836	-0.12471477645314527	0.5204020769310798	0.006832990476687839	-0.10076589151681381	0.6025734226400161	0.0381333905611575	-0.1076988322835124	0.5863391052444529	0.03302564332279079	-0.10175258499223105	0.5636988967970382	0.026058482583498077	-0.09406755983349036	0.528231131319485	0.009942976133001324	-0.08324864593821946	0.6015765634315914	0.02240612383593854	-0.06603549846108969	0.5847777324310737	0.019468847608142714	-0.06456183453140146	0.5641843037897996	0.01550655823923175	-0.06355041040979265	0.5305671139853333	0.002448695391054856	-0.06406052656195249	0.462283081001861	-0.023011742144276925	-0.051989820119430985
